<svg xmlns="http://www.w3.org/2000/svg" viewBox="10 10 270 118" preserveAspectRatio="xMinYMid meet">
  <!-- Dark lockup without card background  for hero / dark green bands -->
  <rect x="22" y="64" width="48" height="36" rx="6" fill="#2d6a4f"/>
  <rect x="28" y="71" width="36" height="22" rx="3" fill="#0a1810"/>
  <rect x="30" y="98" width="8" height="7" rx="2" fill="#1a3d2b"/>
  <rect x="54" y="98" width="8" height="7" rx="2" fill="#1a3d2b"/>
  <rect x="68" y="71" width="5" height="18" rx="2.5" fill="#2d6a4f"/>
  <circle cx="70" cy="90" r="4" fill="#2d6a4f"/>
  <line x1="70" y1="93" x2="70" y2="110" stroke="#52b788" stroke-width="2" stroke-linecap="round"/>
  <rect x="63" y="108" width="14" height="7" rx="3.5" fill="#52b788"/>
  <circle cx="59" cy="107" r="2.5" fill="#ffffff"/>
  <rect x="28" y="44" width="36" height="22" rx="8" fill="#2d6a4f"/>
  <rect x="35" y="51" width="6" height="6" rx="1.5" fill="#0a1810"/>
  <rect x="49" y="51" width="6" height="6" rx="1.5" fill="#0a1810"/>
  <rect x="37" y="53" width="2.5" height="2.5" rx="1" fill="#52b788"/>
  <rect x="51" y="53" width="2.5" height="2.5" rx="1" fill="#52b788"/>
  <rect x="22" y="44" width="48" height="6" rx="3" fill="#1a3d2b"/>
  <rect x="28" y="30" width="36" height="17" rx="7" fill="#1a3d2b"/>
  <circle cx="46" cy="37" r="3" fill="#52b788"/>
  <rect x="16" y="44" width="18" height="5" rx="2.5" fill="#163321"/>
  <line x1="46" y1="30" x2="46" y2="23" stroke="#52b788" stroke-width="1.5" stroke-linecap="round"/>
  <circle cx="46" cy="21" r="2.5" fill="#52b788"/>
  <text font-family="-apple-system, 'SF Pro Display', system-ui, sans-serif" font-size="34" font-weight="800" letter-spacing="-0.5">
    <tspan x="96" y="80" fill="#ffffff">Sim</tspan><tspan fill="#52b788" dx="4">Cap</tspan>
  </text>
  <text x="96" y="96" font-family="-apple-system, system-ui, sans-serif" font-size="11" font-weight="500" fill="#6aab8a" letter-spacing="0.8">SIM GOLF HANDICAP</text>
</svg>
